<svg xmlns="http://www.w3.org/2000/svg" viewBox="0 0 350 600">
      <defs>
  <linearGradient id="primaryGrad" x1="0%" y1="0%" x2="100%" y2="100%">
    <stop offset="0%" stop-color="#000080" />
    <stop offset="100%" stop-color="#00008B" />
  </linearGradient>
  <linearGradient id="secondaryGrad" x1="0%" y1="0%" x2="100%" y2="100%">
    <stop offset="0%" stop-color="#FF0000" />
    <stop offset="100%" stop-color="#B22222" />
  </linearGradient>
  <linearGradient id="accentGrad" x1="0%" y1="0%" x2="100%" y2="100%">
    <stop offset="0%" stop-color="#FFD700" />
    <stop offset="100%" stop-color="#DAA520" />
  </linearGradient>
</defs>
      <g id="costume-nhat-binh" filter="none">
            
            <path 
              d="M112 124 C140 126, 200 126, 228 124 C236 220, 244 340, 242 455 C200 465, 140 465, 98 455 C96 340, 104 220, 112 124 Z" 
              fill="url(#primaryGrad)" 
              stroke="#2d1810" 
              stroke-width="#2d1810"
            />

            
            "none"

            
            <rect 
              x="150" 
              y="112" 
              width="40" 
              height="155" 
              rx="3"
              fill="url(#accentGrad)" 
              stroke="#DAA520" 
              stroke-width="2.5" 
            />
            
            <line x1="170" y1="112" x2="170" y2="267" stroke="#ffffff" stroke-width="1.5" strokeDasharray="3 3" />
            <circle cx="170" cy="140" r="4" fill="#DAA520" stroke="#fff" stroke-width="0.8" />
            <circle cx="170" cy="172" r="4" fill="#DAA520" stroke="#fff" stroke-width="0.8" />
            <circle cx="170" cy="204" r="4" fill="#DAA520" stroke="#fff" stroke-width="0.8" />
            <circle cx="170" cy="236" r="4" fill="#DAA520" stroke="#fff" stroke-width="0.8" />

            
            <g id="sleeve-left">
              <path d="M118 125 C92 180, 70 230, 62 250 C74 256, 88 255, 96 248 C104 220, 126 170, 136 142 Z" fill="url(#primaryGrad)" />
              <rect x="62" y="244" width="26" height="3" fill="#e53e3e" transform="rotate(22 62 244)" />
              <rect x="64" y="248" width="26" height="3" fill="#ecc94b" transform="rotate(22 64 248)" />
              <rect x="66" y="252" width="26" height="3" fill="#3182ce" transform="rotate(22 66 252)" />
            </g>
            <g id="sleeve-right">
              <path d="M222 125 C248 180, 270 230, 278 250 C266 256, 252 255, 244 248 C236 220, 214 170, 204 142 Z" fill="url(#primaryGrad)" />
              <rect x="254" y="254" width="26" height="3" fill="#e53e3e" transform="rotate(-22 254 254)" />
              <rect x="252" y="250" width="26" height="3" fill="#ecc94b" transform="rotate(-22 252 250)" />
              <rect x="250" y="246" width="26" height="3" fill="#3182ce" transform="rotate(-22 250 246)" />
            </g>

            
            
          </g>
    </svg>